<?xml version="1.0" encoding="utf-8"?>
<!-- Generator: Adobe Illustrator 28.1.0, SVG Export Plug-In . SVG Version: 6.00 Build 0)  -->
<svg version="1.1" id="Layer_1" xmlns="http://www.w3.org/2000/svg" xmlns:xlink="http://www.w3.org/1999/xlink" x="0px" y="0px"
	 viewBox="0 0 500 500" style="enable-background:new 0 0 500 500;" xml:space="preserve">
<style type="text/css">
	.st0{fill:#1C5147;}
</style>
<g>
	<path d="M83.78,347.19c-3.03-1.63-5.41-3.88-7.13-6.74c-1.72-2.86-2.58-6.08-2.58-9.65c0-3.57,0.86-6.79,2.58-9.65
		c1.72-2.86,4.09-5.11,7.13-6.74c3.04-1.63,6.44-2.44,10.22-2.44c3.78,0,7.18,0.81,10.2,2.44c3.02,1.63,5.39,3.88,7.13,6.74
		c1.73,2.86,2.6,6.08,2.6,9.65c0,3.57-0.87,6.79-2.6,9.65c-1.74,2.86-4.11,5.11-7.13,6.74c-3.02,1.63-6.42,2.44-10.2,2.44
		C90.22,349.64,86.82,348.82,83.78,347.19z M99.83,340.98c1.73-0.99,3.1-2.37,4.08-4.14c0.99-1.77,1.48-3.78,1.48-6.04
		s-0.49-4.27-1.48-6.04c-0.99-1.77-2.35-3.15-4.08-4.14c-1.73-0.99-3.68-1.48-5.83-1.48c-2.15,0-4.09,0.49-5.83,1.48
		s-3.1,2.37-4.08,4.14c-0.99,1.77-1.48,3.78-1.48,6.04s0.49,4.27,1.48,6.04c0.99,1.77,2.35,3.15,4.08,4.14s3.68,1.48,5.83,1.48
		C96.15,342.46,98.1,341.97,99.83,340.98z"/>
	<path d="M153.41,349.01l-0.05-21.85l-10.72,18h-3.8l-10.66-17.53v21.38h-7.91V312.6h6.97l13.63,22.63l13.42-22.63h6.92l0.1,36.41
		H153.41z"/>
	<path d="M193.94,341.21h-16.91l-3.23,7.8h-8.64l16.23-36.41h8.32l16.28,36.41h-8.84L193.94,341.21z M191.28,334.81l-5.77-13.94
		l-5.78,13.94H191.28z"/>
	<path d="M209.8,312.6h8.43v36.41h-8.43V312.6z"/>
	<path d="M230.48,348.47c-2.69-0.78-4.85-1.79-6.48-3.04l2.86-6.35c1.56,1.15,3.42,2.07,5.57,2.76c2.15,0.69,4.3,1.04,6.45,1.04
		c2.39,0,4.16-0.35,5.31-1.06c1.14-0.71,1.72-1.66,1.72-2.84c0-0.87-0.34-1.59-1.01-2.16c-0.68-0.57-1.54-1.03-2.6-1.38
		c-1.06-0.35-2.49-0.73-4.29-1.14c-2.78-0.66-5.05-1.32-6.82-1.98c-1.77-0.66-3.29-1.72-4.55-3.17c-1.27-1.46-1.9-3.4-1.9-5.83
		c0-2.11,0.57-4.03,1.72-5.75c1.14-1.72,2.87-3.08,5.18-4.08c2.31-1.01,5.12-1.51,8.45-1.51c2.32,0,4.6,0.28,6.81,0.83
		s4.16,1.35,5.83,2.39l-2.6,6.4c-3.37-1.91-6.73-2.86-10.09-2.86c-2.36,0-4.1,0.38-5.23,1.15c-1.13,0.76-1.69,1.77-1.69,3.02
		c0,1.25,0.65,2.18,1.95,2.78c1.3,0.61,3.29,1.2,5.96,1.79c2.77,0.66,5.05,1.32,6.82,1.98c1.77,0.66,3.28,1.7,4.55,3.12
		c1.27,1.42,1.9,3.35,1.9,5.78c0,2.08-0.58,3.98-1.74,5.7c-1.16,1.72-2.9,3.08-5.23,4.08s-5.15,1.51-8.48,1.51
		C235.95,349.64,233.17,349.25,230.48,348.47z"/>
	<path d="M278.39,348.47c-2.69-0.78-4.85-1.79-6.48-3.04l2.86-6.35c1.56,1.15,3.42,2.07,5.57,2.76c2.15,0.69,4.3,1.04,6.45,1.04
		c2.39,0,4.16-0.35,5.3-1.06c1.15-0.71,1.72-1.66,1.72-2.84c0-0.87-0.34-1.59-1.02-2.16c-0.67-0.57-1.54-1.03-2.6-1.38
		c-1.06-0.35-2.49-0.73-4.29-1.14c-2.78-0.66-5.05-1.32-6.81-1.98c-1.77-0.66-3.28-1.72-4.55-3.17c-1.27-1.46-1.9-3.4-1.9-5.83
		c0-2.11,0.58-4.03,1.72-5.75c1.15-1.72,2.87-3.08,5.18-4.08c2.3-1.01,5.12-1.51,8.45-1.51c2.32,0,4.59,0.28,6.81,0.83
		c2.22,0.56,4.16,1.35,5.83,2.39l-2.6,6.4c-3.37-1.91-6.73-2.86-10.09-2.86c-2.36,0-4.1,0.38-5.23,1.15
		c-1.13,0.76-1.69,1.77-1.69,3.02c0,1.25,0.65,2.18,1.95,2.78c1.3,0.61,3.28,1.2,5.95,1.79c2.78,0.66,5.05,1.32,6.81,1.98
		c1.77,0.66,3.29,1.7,4.55,3.12c1.27,1.42,1.9,3.35,1.9,5.78c0,2.08-0.58,3.98-1.74,5.7c-1.16,1.72-2.91,3.08-5.23,4.08
		s-5.15,1.51-8.48,1.51C283.86,349.64,281.08,349.25,278.39,348.47z"/>
	<path d="M331.95,341.21h-16.91l-3.23,7.8h-8.64l16.23-36.41h8.32l16.28,36.41h-8.84L331.95,341.21z M329.29,334.81l-5.77-13.94
		l-5.78,13.94H329.29z"/>
	<path d="M353.54,319.46h-11.65v-6.87h31.73v6.87h-11.65v29.55h-8.43V319.46z"/>
	<path d="M386.21,319.46h-11.65v-6.87h31.73v6.87h-11.65v29.55h-8.43V319.46z"/>
	<path d="M410.81,312.6h8.43v36.41h-8.43V312.6z"/>
</g>
<g>
	<g>
		<path class="st0" d="M215.02,148.91c0-8.28,5.07-15.47,17.43-18.73c7.22-1.91,12.43-8.17,12.43-15.64v-1.06
			c0-10.62-9.77-18.44-20.18-16.35c-34.42,6.92-51.11,28.65-51.11,53.81c0,66.91,104.75,43.75,104.75,77.48
			c0,8.61-6.12,15.53-20.55,18.15c-8.14,1.48-14.2,8.32-14.2,16.59l0,0c0,10.19,9.03,18.14,19.1,16.66
			c38.35-5.66,57.04-28.45,57.04-54.49C319.74,159.2,215.02,182.09,215.02,148.91z"/>
	</g>
	<g>
		<path class="st0" d="M203.07,240.1c0,6.55-5.31,11.86-11.86,11.86s-11.86-5.31-11.86-11.86c0-6.55,5.31-11.86,11.86-11.86
			S203.07,233.54,203.07,240.1z"/>
		<circle class="st0" cx="188.05" cy="214.29" r="6.67"/>
		<path class="st0" d="M235.16,263.22c0,9.27-7.51,16.78-16.78,16.78s-16.78-7.51-16.78-16.78c0-9.27,7.51-16.78,16.78-16.78
			S235.16,253.96,235.16,263.22z"/>
	</g>
	<g>
		<path class="st0" d="M286.22,136.7c0-6.55,5.31-11.86,11.86-11.86c6.55,0,11.86,5.31,11.86,11.86c0,6.55-5.31,11.86-11.86,11.86
			C291.53,148.57,286.22,143.25,286.22,136.7z"/>
		<circle class="st0" cx="301.24" cy="162.51" r="6.67"/>
		<path class="st0" d="M254.13,113.57c0-9.27,7.51-16.78,16.78-16.78s16.78,7.51,16.78,16.78s-7.51,16.78-16.78,16.78
			S254.13,122.84,254.13,113.57z"/>
	</g>
</g>
</svg>
